HIERARCHY
ROOT Hips
{
	OFFSET 0.000000 0.000000 0.000000
	CHANNELS 6 Xposition Yposition Zposition Xrotation Yrotation Zrotation
	JOINT LeftUpLeg_virtual
	{
		OFFSET 0.000000 0.000000 0.000000
		CHANNELS 3 Xrotation Yrotation Zrotation
		JOINT LeftUpLeg
		{
			OFFSET 10.205400 -3.823500 0.155100
			CHANNELS 3 Xrotation Yrotation Zrotation
			JOINT LeftLeg
			{
				OFFSET 0.708757 -12.982077 0.567790
				CHANNELS 3 Xrotation Yrotation Zrotation
				JOINT LeftFoot
				{
					OFFSET -0.708756 -10.717838 -2.184338
					CHANNELS 3 Xrotation Yrotation Zrotation
					JOINT LeftToeBase
					{
						OFFSET 0.108149 -7.191104 7.560241
						CHANNELS 3 Xrotation Yrotation Zrotation
						JOINT LeftToe_End
						{
							OFFSET 0.070230 0.081724 4.490308
							CHANNELS 3 Xrotation Yrotation Zrotation
							End Site
							{
								OFFSET 0 0 0
							}
						}
					}
				}
			}
		}
	}
	JOINT RightUpLeg_virtual
	{
		OFFSET 0.000000 0.000000 0.000000
		CHANNELS 3 Xrotation Yrotation Zrotation
		JOINT RightUpLeg
		{
			OFFSET -10.205400 -3.823500 0.005500
			CHANNELS 3 Xrotation Yrotation Zrotation
			JOINT RightLeg
			{
				OFFSET -0.708756 -12.982134 0.610632
				CHANNELS 3 Xrotation Yrotation Zrotation
				JOINT RightFoot
				{
					OFFSET 0.708754 -10.717769 -1.945823
					CHANNELS 3 Xrotation Yrotation Zrotation
					JOINT RightToeBase
					{
						OFFSET -0.108140 -7.191069 7.372968
						CHANNELS 3 Xrotation Yrotation Zrotation
						JOINT RightToe_End
						{
							OFFSET -0.070227 0.081735 4.479403
							CHANNELS 3 Xrotation Yrotation Zrotation
							End Site
							{
								OFFSET 0 0 0
							}
						}
					}
				}
			}
		}
	}
	JOINT Spine_virtual
	{
		OFFSET 0.000000 0.000000 0.000000
		CHANNELS 3 Xrotation Yrotation Zrotation
		JOINT Spine
		{
			OFFSET 0.000000 6.876099 0.125700
			CHANNELS 3 Xrotation Yrotation Zrotation
			JOINT Spine1
			{
				OFFSET 0.000000 5.730043 0.104720
				CHANNELS 3 Xrotation Yrotation Zrotation
				JOINT Spine1_split
				{
					OFFSET 0.000000 5.730043 0.104720
					CHANNELS 3 Xrotation Yrotation Zrotation
					JOINT Spine2
					{
						OFFSET 0.000000 5.730043 0.104720
						CHANNELS 3 Xrotation Yrotation Zrotation
						JOINT Neck_virtual
						{
							OFFSET 0.000000 0.000000 0.000000
							CHANNELS 3 Xrotation Yrotation Zrotation
							JOINT Neck
							{
								OFFSET 0.000000 10.314075 0.188496
								CHANNELS 3 Xrotation Yrotation Zrotation
								JOINT Head
								{
									OFFSET 0.000000 7.643700 -2.377400
									CHANNELS 3 Xrotation Yrotation Zrotation
									JOINT HeadTop_End
									{
										OFFSET 0.000000 43.788605 -13.619600
										CHANNELS 3 Xrotation Yrotation Zrotation
										End Site
										{
											OFFSET 0 0 0
										}
									}
								}
							}
						}
						JOINT LeftShoulder_virtual
						{
							OFFSET 0.000000 0.000000 0.000000
							CHANNELS 3 Xrotation Yrotation Zrotation
							JOINT LeftShoulder
							{
								OFFSET 2.196100 4.412489 0.087492
								CHANNELS 3 Xrotation Yrotation Zrotation
								JOINT LeftShoulder_split
								{
									OFFSET 2.196100 4.412489 0.087492
									CHANNELS 3 Xrotation Yrotation Zrotation
									JOINT LeftArm
									{
										OFFSET 8.771219 -2.981674 -0.026999
										CHANNELS 3 Xrotation Yrotation Zrotation
										JOINT LeftForeArm
										{
											OFFSET 8.512804 0.000000 -0.000000
											CHANNELS 3 Xrotation Yrotation Zrotation
											JOINT LeftHand
											{
												OFFSET 18.484802 0.000000 -0.000000
												CHANNELS 3 Xrotation Yrotation Zrotation
												End Site
												{
													OFFSET 0 0 0
												}
											}
										}
									}
								}
							}
						}
						JOINT RightShoulder_virtual
						{
							OFFSET 0.000000 0.000000 0.000000
							CHANNELS 3 Xrotation Yrotation Zrotation
							JOINT RightShoulder
							{
								OFFSET -2.196100 4.412496 0.070690
								CHANNELS 3 Xrotation Yrotation Zrotation
								JOINT RightShoulder_split
								{
									OFFSET -2.196100 4.412496 0.070690
									CHANNELS 3 Xrotation Yrotation Zrotation
									JOINT RightArm
									{
										OFFSET -8.771282 -2.981682 -0.094208
										CHANNELS 3 Xrotation Yrotation Zrotation
										JOINT RightForeArm
										{
											OFFSET -8.494598 0.000000 0.000000
											CHANNELS 3 Xrotation Yrotation Zrotation
											JOINT RightHand
											{
												OFFSET -18.483803 0.000000 0.000001
												CHANNELS 3 Xrotation Yrotation Zrotation
												End Site
												{
													OFFSET 0 0 0
												}
											}
										}
									}
								}
							}
						}
					}
				}
			}
		}
	}
}
MOTION
Frames: 10
Frame Time: 0.03333333
-0.277557 30.366333 0.302914 0.000000 0.000000 0.000000 -3.171661 -16.679622 -1.550878 -33.068655 17.917019 15.869554 54.022227 -1.368845 11.684787 -24.938573 5.208654 -10.817639 -0.900674 -0.307701 -0.813962 0.000000 0.000000 0.000000 -3.738196 -15.698999 -1.269840 -22.107792 -22.057131 -14.895994 50.947375 -1.370059 -12.859916 -25.384608 -7.400036 18.419511 -2.669541 1.392314 -0.019478 0.000000 0.000000 0.000000 -2.389962 -18.120432 -1.158272 3.917579 2.623562 1.925862 2.842659 2.017993 -0.126716 1.672209 -0.241956 0.089871 0.000000 0.000000 0.000000 2.749539 1.791572 -0.075604 0.945988 -0.232955 4.687915 0.197803 9.593338 1.378988 0.000000 0.000000 0.000000 2.567421 1.962938 -0.238064 0.005123 -4.091317 17.379502 -1.726662 -0.045498 -0.430671 -66.825983 -43.065077 -62.449909 -0.908760 -34.336891 0.836372 0.000000 0.000000 0.000000 3.007986 1.879209 -0.102684 -0.283065 -3.258110 -5.292215 0.697326 0.857496 0.463458 -103.862636 58.833440 95.419846 -1.520420 29.675331 0.447716 0.000000 0.000000 0.000000 
-0.277953 30.336039 0.272846 0.000000 0.000000 0.000000 -3.170526 -16.835445 -1.509763 -33.123788 17.911415 15.755971 53.940562 -1.379607 11.754676 -24.828091 5.134277 -10.826571 -0.879187 -0.261865 -0.927207 0.000000 0.000000 0.000000 -3.760066 -15.658489 -1.233322 -22.144665 -22.140849 -14.976672 51.329773 -1.466644 -12.768118 -25.679474 -7.454397 18.377672 -2.077212 1.364915 -0.107899 0.000000 0.000000 0.000000 -2.480967 -18.035026 -1.242601 3.940424 2.593194 1.852331 2.853530 2.013990 -0.159029 1.570728 0.049464 -0.046172 0.000000 0.000000 0.000000 2.675938 1.774224 -0.105430 0.808802 -0.354983 4.710733 0.398137 9.632273 1.378139 0.000000 0.000000 0.000000 2.579976 1.945671 -0.246614 -0.054044 -3.925642 17.295545 -1.738196 -0.054225 -0.335994 -66.760079 -43.290238 -62.546262 -0.854552 -34.640506 0.902526 0.000000 0.000000 0.000000 3.067345 1.879442 -0.123005 -0.262842 -3.181302 -5.385730 0.705077 0.858637 0.431695 -103.848443 59.354207 95.575418 -1.386522 29.386039 0.408877 0.000000 0.000000 0.000000 
-0.265422 30.306520 0.248827 0.000000 0.000000 0.000000 -3.158971 -16.996120 -1.453122 -33.262994 17.872735 15.599980 53.961069 -1.400789 11.973749 -24.514734 4.955517 -11.092728 -0.741964 -0.193002 -1.165629 0.000000 0.000000 0.000000 -3.796135 -15.822449 -1.185199 -22.243092 -22.220082 -15.043304 51.587790 -1.646472 -12.654117 -25.657046 -7.546060 18.328283 -1.875343 1.272931 -0.216759 0.000000 0.000000 0.000000 -2.607387 -17.921522 -1.322689 3.877485 2.515800 1.726952 2.800457 2.047285 -0.196002 1.334150 0.004882 -0.158378 0.000000 0.000000 0.000000 2.627885 1.801750 -0.151491 0.707459 -0.553127 4.893099 0.839270 9.474012 1.559672 0.000000 0.000000 0.000000 2.581304 1.968896 -0.276007 -0.142739 -3.606107 17.109136 -1.651975 -0.059635 -0.337638 -66.536097 -43.784084 -62.575475 -0.874265 -35.116782 0.859757 0.000000 0.000000 0.000000 3.090768 1.913380 -0.154534 -0.189658 -2.972508 -5.535132 0.526947 0.820624 0.227720 -103.639453 60.009748 95.891184 -1.217114 29.161691 0.330474 0.000000 0.000000 0.000000 
-0.249659 30.296982 0.233509 0.000000 0.000000 0.000000 -3.116265 -17.183733 -1.395374 -33.445056 17.817243 15.504111 53.970092 -1.434884 12.285259 -24.129837 4.719292 -11.572571 -0.611006 -0.111092 -1.426356 0.000000 0.000000 0.000000 -3.757983 -16.180197 -1.129514 -22.305931 -22.237913 -14.995356 51.584290 -1.824150 -12.578020 -25.304430 -7.604710 18.264052 -2.118026 1.133398 -0.251908 0.000000 0.000000 0.000000 -2.716729 -17.890958 -1.372264 3.726529 2.397408 1.603770 2.694177 2.093804 -0.235410 1.028142 -0.300988 -0.101790 0.000000 0.000000 0.000000 2.597534 1.856198 -0.202397 0.647005 -0.782198 5.183718 1.373345 9.225261 1.869692 0.000000 0.000000 0.000000 2.556937 2.016202 -0.323989 -0.247378 -3.185572 16.809244 -1.436530 -0.094242 -0.416046 -66.221805 -44.546449 -62.646406 -0.930041 -35.549837 0.709036 0.000000 0.000000 0.000000 3.071838 1.961404 -0.191454 -0.074860 -2.677077 -5.740387 0.341745 0.726476 0.031547 -103.271497 60.634608 96.295688 -1.041310 29.103767 0.229252 0.000000 0.000000 0.000000 
-0.239313 30.305996 0.220959 0.000000 0.000000 0.000000 -3.077530 -17.439481 -1.368164 -33.640820 17.759008 15.495751 53.961858 -1.457744 12.622587 -23.700155 4.502650 -12.131679 -0.560328 -0.028080 -1.616076 0.000000 0.000000 0.000000 -3.614671 -16.639072 -1.094474 -22.313887 -22.138310 -14.793093 51.389664 -1.994742 -12.561189 -24.819780 -7.590097 18.013555 -2.264877 0.970490 -0.132342 0.000000 0.000000 0.000000 -2.691316 -17.992644 -1.371696 3.517743 2.269489 1.515623 2.560323 2.129501 -0.271787 0.894871 -0.647948 0.023023 0.000000 0.000000 0.000000 2.569423 1.902175 -0.245337 0.608479 -0.994440 5.461987 1.808088 8.987170 2.222784 0.000000 0.000000 0.000000 2.497353 2.058000 -0.376341 -0.364327 -2.721616 16.456962 -1.321041 -0.119531 -0.558573 -65.927199 -45.514202 -62.804628 -0.954646 -35.873765 0.531736 0.000000 0.000000 0.000000 3.003097 1.997620 -0.225001 0.057045 -2.337267 -5.985439 0.163856 0.579429 -0.154557 -102.897770 61.093904 96.678452 -0.901737 29.215943 0.180619 0.000000 0.000000 0.000000 
-0.230116 30.330769 0.207924 0.000000 0.000000 0.000000 -3.060562 -17.774946 -1.377256 -33.750167 17.747748 15.538971 53.970297 -1.418317 12.894461 -23.361069 4.380991 -12.539295 -0.557601 0.033685 -1.737766 0.000000 0.000000 0.000000 -3.446983 -17.085727 -1.095128 -22.412026 -21.951357 -14.520788 51.180298 -2.176324 -12.596603 -24.324626 -7.514031 17.609133 -2.119462 0.810541 0.122700 0.000000 0.000000 0.000000 -2.554121 -18.271188 -1.332040 3.345285 2.152857 1.466732 2.419280 2.137668 -0.308520 1.041098 -0.956461 0.183758 0.000000 0.000000 0.000000 2.534584 1.922239 -0.265448 0.567788 -1.169337 5.652171 2.031615 8.842515 2.521551 0.000000 0.000000 0.000000 2.405845 2.066975 -0.421537 -0.484402 -2.246701 16.091299 -1.194293 0.021316 -0.713068 -65.788232 -46.650537 -63.110367 -0.861769 -36.108522 0.403915 0.000000 0.000000 0.000000 2.892219 2.005069 -0.247683 0.172688 -2.031697 -6.296071 0.083757 0.523058 -0.311623 -102.483512 61.255944 96.774867 -0.809390 29.190115 0.207671 0.000000 0.000000 0.000000 
-0.217399 30.360575 0.166996 0.000000 0.000000 0.000000 -3.058604 -18.115535 -1.415681 -33.793648 17.869585 15.590634 54.051351 -1.220036 13.035782 -23.258167 4.380719 -12.583491 -0.612110 0.074809 -1.761362 0.000000 0.000000 0.000000 -3.321251 -17.471557 -1.127335 -22.694383 -21.756876 -14.301994 51.152031 -2.315732 -12.692694 -23.888945 -7.390197 17.351800 -1.939544 0.670883 0.342375 0.000000 0.000000 0.000000 -2.341463 -18.664255 -1.278429 3.260584 2.104500 1.453663 2.287830 2.127472 -0.332937 1.140794 -1.148160 0.286422 0.000000 0.000000 0.000000 2.479911 1.911865 -0.261031 0.512442 -1.282707 5.700013 2.075758 8.833039 2.691541 0.000000 0.000000 0.000000 2.307388 2.052330 -0.447274 -0.591124 -1.790539 15.756973 -1.017657 0.327971 -0.897330 -65.758398 -47.909214 -63.550484 -0.546612 -36.181424 0.409414 0.000000 0.000000 0.000000 2.746736 1.989693 -0.257138 0.227922 -1.803437 -6.655530 0.200098 0.694788 -0.394242 -101.939658 61.087689 96.438501 -0.748422 28.819365 0.296924 0.000000 0.000000 0.000000 
-0.206005 30.381123 0.128130 0.000000 0.000000 0.000000 -3.087521 -18.358007 -1.478712 -33.841900 18.110595 15.610671 54.251971 -0.890825 13.053151 -23.314183 4.472697 -12.304092 -0.752039 0.099980 -1.704383 0.000000 0.000000 0.000000 -3.279837 -17.706200 -1.172367 -23.141675 -21.649985 -14.216454 51.447034 -2.404584 -12.832576 -23.521691 -7.252157 17.482796 -1.947601 0.570253 0.366782 0.000000 0.000000 0.000000 -2.070380 -19.032911 -1.219989 3.277076 2.155636 1.447010 2.185154 2.118130 -0.336472 1.222221 -1.211422 0.246433 0.000000 0.000000 0.000000 2.418204 1.888116 -0.240336 0.466964 -1.346799 5.588125 2.061348 8.909291 2.724702 0.000000 0.000000 0.000000 2.244813 2.027402 -0.446401 -0.665787 -1.417518 15.521924 -0.834070 0.743273 -1.014829 -65.654845 -49.218603 -63.986319 -0.051738 -35.980627 0.546795 0.000000 0.000000 0.000000 2.609143 1.970716 -0.253012 0.220927 -1.681247 -7.011045 0.365923 0.954824 -0.341549 -101.404192 60.701701 95.886376 -0.711089 28.178514 0.415761 0.000000 0.000000 0.000000 
-0.196574 30.393972 0.102238 0.000000 0.000000 0.000000 -3.151067 -18.447446 -1.550019 -33.907036 18.389769 15.600506 54.507136 -0.577133 12.988685 -23.435296 4.602805 -11.948745 -0.946057 0.107488 -1.618245 0.000000 0.000000 0.000000 -3.348905 -17.714123 -1.218608 -23.599448 -21.770531 -14.254219 51.938176 -2.466981 -12.980506 -23.338145 -7.180393 18.014716 -2.167811 0.523144 0.160706 0.000000 0.000000 0.000000 -1.864296 -19.272164 -1.176795 3.366635 2.298470 1.436167 2.124172 2.134824 -0.319289 1.256808 -1.257100 0.206114 0.000000 0.000000 0.000000 2.350334 1.884427 -0.216338 0.549179 -1.355632 5.368124 2.192437 8.988316 2.687025 0.000000 0.000000 0.000000 2.263215 2.015162 -0.428145 -0.680048 -1.212836 15.401414 -0.569245 1.245049 -1.015127 -65.627975 -50.554277 -64.581269 0.422378 -35.340816 0.676399 0.000000 0.000000 0.000000 2.541833 1.977154 -0.253695 0.148265 -1.688716 -7.360263 0.625850 1.229546 -0.209620 -100.917432 60.325166 95.306636 -0.687269 27.526081 0.478709 0.000000 0.000000 0.000000 
-0.182715 30.390770 0.064272 0.000000 0.000000 0.000000 -3.258890 -18.376750 -1.614233 -34.015893 18.567728 15.584147 54.706820 -0.419735 12.907072 -23.527416 4.699535 -11.752469 -1.087919 0.096287 -1.521767 0.000000 0.000000 0.000000 -3.543287 -17.537863 -1.269065 -23.788079 -22.120399 -14.295560 52.379037 -2.556012 -13.133340 -23.582580 -7.238855 18.572124 -2.396038 0.544105 -0.182970 0.000000 0.000000 0.000000 -1.797279 -19.310560 -1.165965 3.433703 2.515097 1.427357 2.111782 2.187430 -0.289992 1.107494 -1.337332 0.148667 0.000000 0.000000 0.000000 2.281183 1.920824 -0.202282 0.861758 -1.284957 5.089325 2.665804 9.048994 2.654256 0.000000 0.000000 0.000000 2.366938 2.035205 -0.406789 -0.623386 -1.243171 15.427312 -0.390447 1.706572 -1.047570 -65.831153 -51.793905 -65.371399 0.696603 -34.209627 0.709384 0.000000 0.000000 0.000000 2.583510 2.016040 -0.273001 0.019179 -1.764266 -7.694093 0.842345 1.431469 -0.051767 -100.443334 60.261857 94.837197 -0.663856 27.253686 0.456680 0.000000 0.000000 0.000000 
